<svg width="64" height="84" viewBox="0 0 64 84" fill="none" xmlns="http://www.w3.org/2000/svg">
<path d="M61.92 44.4C55.64 28.08 33.28 27.2 38.68 3.48C39.08 1.72 37.2 0.359997 35.68 1.28C21.16 9.84 10.72 27 19.48 49.48C20.2 51.32 18.04 53.04 16.48 51.84C9.24 46.36 8.48 38.48 9.12 32.84C9.36 30.76 6.64 29.76 5.48 31.48C2.76 35.64 0 42.36 0 52.48C1.52 74.88 20.44 81.76 27.24 82.64C36.96 83.88 47.48 82.08 55.04 75.16C63.36 67.44 66.4 55.12 61.92 44.4ZM24.8 64.52C30.56 63.12 33.52 58.96 34.32 55.28C35.64 49.56 30.48 43.96 33.96 34.92C35.28 42.4 47.04 47.08 47.04 55.24C47.36 65.36 36.4 74.04 24.8 64.52Z" fill="#FDAD00"/>
</svg>
