<svg width="713" height="151" viewBox="0 0 713 151" fill="none" xmlns="http://www.w3.org/2000/svg">
<path d="M286.776 123.128C285.837 123.683 284.984 123.875 284.216 123.704C283.448 123.533 282.765 123 282.168 122.104L261.176 88.696H237.688V119.608C237.688 121.869 236.579 123 234.36 123C232.099 123 230.968 121.869 230.968 119.608V43.896C230.968 41.6347 232.099 40.504 234.36 40.504H264.312C271.608 40.504 277.112 42.3813 280.824 46.136C284.579 49.8907 286.456 55.416 286.456 62.712V66.552C286.456 72.9947 284.984 78.0507 282.04 81.72C279.096 85.3893 274.744 87.6293 268.984 88.44L287.864 118.52C289.059 120.483 288.696 122.019 286.776 123.128ZM237.688 81.976H264.312C269.688 81.976 273.592 80.76 276.024 78.328C278.499 75.8533 279.736 71.928 279.736 66.552V62.712C279.736 57.2933 278.499 53.368 276.024 50.936C273.592 48.4613 269.688 47.224 264.312 47.224H237.688V81.976ZM311.835 95.352V100.024C311.835 106.04 313.03 110.264 315.419 112.696C317.851 115.085 322.118 116.28 328.219 116.28H338.715C344.091 116.28 347.995 115.597 350.427 114.232C352.902 112.824 354.374 110.413 354.843 107C355.014 105.933 355.355 105.123 355.867 104.568C356.422 104.013 357.254 103.736 358.363 103.736C359.472 103.736 360.304 104.056 360.859 104.696C361.456 105.293 361.691 106.147 361.563 107.256C361.008 112.632 358.854 116.6 355.099 119.16C351.344 121.72 345.883 123 338.715 123H328.219C320.24 123 314.395 121.165 310.683 117.496C306.971 113.784 305.115 107.96 305.115 100.024V85.56C305.115 77.496 306.971 71.6293 310.683 67.96C314.395 64.248 320.24 62.4347 328.219 62.52H338.715C346.694 62.52 352.518 64.376 356.187 68.088C359.899 71.7573 361.755 77.5813 361.755 85.56V91.96C361.755 94.2213 360.646 95.352 358.427 95.352H311.835ZM328.219 69.24C322.118 69.1547 317.851 70.328 315.419 72.76C313.03 75.1493 311.835 79.416 311.835 85.56V88.632H355.035V85.56C355.035 79.4587 353.84 75.2133 351.451 72.824C349.062 70.4347 344.816 69.24 338.715 69.24H328.219ZM388.448 123C386.187 123 385.056 121.869 385.056 119.608V69.24H379.68C377.419 69.24 376.288 68.1093 376.288 65.848C376.288 63.6293 377.419 62.52 379.68 62.52H385.056V56.888C385.056 49.0373 386.869 43.2987 390.496 39.672C394.165 36.0453 399.925 34.232 407.776 34.232C409.952 34.232 411.04 35.3413 411.04 37.56C411.04 39.8213 409.952 40.952 407.776 40.952C401.803 40.952 397.643 42.1253 395.296 44.472C392.949 46.776 391.776 50.9147 391.776 56.888V62.52H407.648C409.909 62.52 411.04 63.6293 411.04 65.848C411.04 68.1093 409.909 69.24 407.648 69.24H391.776V119.608C391.776 121.869 390.667 123 388.448 123ZM427.085 95.352V100.024C427.085 106.04 428.28 110.264 430.669 112.696C433.101 115.085 437.368 116.28 443.469 116.28H453.965C459.341 116.28 463.245 115.597 465.677 114.232C468.152 112.824 469.624 110.413 470.093 107C470.264 105.933 470.605 105.123 471.117 104.568C471.672 104.013 472.504 103.736 473.613 103.736C474.722 103.736 475.554 104.056 476.109 104.696C476.706 105.293 476.941 106.147 476.813 107.256C476.258 112.632 474.104 116.6 470.349 119.16C466.594 121.72 461.133 123 453.965 123H443.469C435.49 123 429.645 121.165 425.933 117.496C422.221 113.784 420.365 107.96 420.365 100.024V85.56C420.365 77.496 422.221 71.6293 425.933 67.96C429.645 64.248 435.49 62.4347 443.469 62.52H453.965C461.944 62.52 467.768 64.376 471.437 68.088C475.149 71.7573 477.005 77.5813 477.005 85.56V91.96C477.005 94.2213 475.896 95.352 473.677 95.352H427.085ZM443.469 69.24C437.368 69.1547 433.101 70.328 430.669 72.76C428.28 75.1493 427.085 79.416 427.085 85.56V88.632H470.285V85.56C470.285 79.4587 469.09 75.2133 466.701 72.824C464.312 70.4347 460.066 69.24 453.965 69.24H443.469ZM502.61 123C500.349 123 499.218 121.869 499.218 119.608V65.848C499.218 63.6293 500.349 62.52 502.61 62.52C504.829 62.52 505.938 63.6293 505.938 65.848V75.704C508.157 71.4373 511.357 68.1733 515.538 65.912C519.762 63.6507 524.754 62.52 530.514 62.52C532.775 62.52 533.906 63.6293 533.906 65.848C533.906 68.1093 532.775 69.24 530.514 69.24C522.919 69.24 517.031 70.968 512.85 74.424C508.669 77.8373 506.365 82.7227 505.938 89.08V119.608C505.938 121.869 504.829 123 502.61 123ZM550.86 123C548.599 123 547.468 121.869 547.468 119.608V43.896C547.468 41.6347 548.599 40.504 550.86 40.504C552.481 40.504 553.761 41.2507 554.7 42.744L586.572 91.448L585.036 91.64L616.908 42.744C617.804 41.2507 619.148 40.504 620.94 40.504C622.945 40.504 623.948 41.6347 623.948 43.896V119.608C623.948 121.869 622.839 123 620.62 123C618.359 123 617.228 121.869 617.228 119.608V50.616L619.212 51.256L589.644 96.312C588.705 97.7627 587.361 98.488 585.612 98.488C584.076 98.488 582.839 97.7627 581.9 96.312L552.332 51.256L554.188 51.96V119.608C554.188 121.869 553.079 123 550.86 123ZM652.835 95.352V100.024C652.835 106.04 654.03 110.264 656.419 112.696C658.851 115.085 663.118 116.28 669.219 116.28H679.715C685.091 116.28 688.995 115.597 691.427 114.232C693.902 112.824 695.374 110.413 695.843 107C696.014 105.933 696.355 105.123 696.867 104.568C697.422 104.013 698.254 103.736 699.363 103.736C700.472 103.736 701.304 104.056 701.859 104.696C702.456 105.293 702.691 106.147 702.563 107.256C702.008 112.632 699.854 116.6 696.099 119.16C692.344 121.72 686.883 123 679.715 123H669.219C661.24 123 655.395 121.165 651.683 117.496C647.971 113.784 646.115 107.96 646.115 100.024V85.56C646.115 77.496 647.971 71.6293 651.683 67.96C655.395 64.248 661.24 62.4347 669.219 62.52H679.715C687.694 62.52 693.518 64.376 697.187 68.088C700.899 71.7573 702.755 77.5813 702.755 85.56V91.96C702.755 94.2213 701.646 95.352 699.427 95.352H652.835ZM669.219 69.24C663.118 69.1547 658.851 70.328 656.419 72.76C654.03 75.1493 652.835 79.416 652.835 85.56V88.632H696.035V85.56C696.035 79.4587 694.84 75.2133 692.451 72.824C690.062 70.4347 685.816 69.24 679.715 69.24H669.219Z" fill="white"/>
<g clip-path="url(#clip0_4_35)">
<path fill-rule="evenodd" clip-rule="evenodd" d="M8.11739 17C3.68111 17 0 20.5934 0 25.0024V128.657C0 133.066 3.68111 136.66 8.11739 136.66H186.407C190.844 136.66 194.524 133.066 194.524 128.657V25.0024C194.524 20.5934 190.844 17 186.407 17H8.11739ZM8.11739 21.5068H186.407C188.412 21.5068 190 23.0877 190 25.0024V128.657C190 130.572 188.412 132.153 186.407 132.153H8.11739C6.11297 132.153 4.5238 130.572 4.5238 128.657V25.0024C4.5238 23.0877 6.11297 21.5068 8.11739 21.5068Z" fill="#FFE98A"/>
<path fill-rule="evenodd" clip-rule="evenodd" d="M47.3465 147.697C47.0468 147.693 46.7492 147.748 46.4711 147.859C46.1929 147.97 45.9398 148.136 45.7263 148.345C45.5129 148.555 45.3434 148.805 45.2277 149.08C45.112 149.356 45.0524 149.652 45.0524 149.95C45.0524 150.249 45.112 150.544 45.2277 150.82C45.3434 151.095 45.5129 151.345 45.7263 151.555C45.9398 151.765 46.1929 151.93 46.4711 152.041C46.7492 152.153 47.0468 152.208 47.3465 152.204H147.043C147.342 152.208 147.64 152.153 147.918 152.041C148.196 151.93 148.449 151.765 148.663 151.555C148.876 151.345 149.046 151.095 149.161 150.82C149.277 150.544 149.337 150.249 149.337 149.95C149.337 149.652 149.277 149.356 149.161 149.08C149.046 148.805 148.876 148.555 148.663 148.345C148.449 148.136 148.196 147.97 147.918 147.859C147.64 147.748 147.342 147.693 147.043 147.697H47.3465Z" fill="#FFE98A"/>
<path fill-rule="evenodd" clip-rule="evenodd" d="M76.2708 39.6801C75.969 39.6761 75.6694 39.731 75.3894 39.8416C75.1094 39.9522 74.8545 40.1162 74.6396 40.3243C74.4247 40.5324 74.2541 40.7803 74.1376 41.0537C74.0211 41.327 73.9611 41.6204 73.9611 41.9167V76.8296V111.743C73.9611 112.133 74.0653 112.517 74.2635 112.856C74.4617 113.195 74.7469 113.477 75.0906 113.675C75.4344 113.872 75.8247 113.977 76.2228 113.98C76.6209 113.983 77.0128 113.883 77.3595 113.691L108.887 96.2235H108.887L140.414 78.7784C140.766 78.5836 141.059 78.3004 141.263 77.958C141.466 77.6156 141.574 77.2263 141.574 76.8298C141.574 76.4333 141.466 76.0438 141.263 75.7014C141.059 75.359 140.766 75.076 140.414 74.8812L108.887 57.4358H108.887L77.3595 39.9682C77.0269 39.7842 76.6525 39.6851 76.2708 39.6801ZM78.5186 45.7482L106.648 61.3328C106.648 61.3328 106.648 61.3328 106.649 61.3328L134.655 76.8296L106.649 92.3266C106.648 92.3266 106.648 92.3266 106.648 92.3266L78.5186 107.911V76.8296V45.7482Z" fill="#FFE98A"/>
</g>
<defs>
<clipPath id="clip0_4_35">
<rect width="194" height="134" fill="white" transform="translate(0 17)"/>
</clipPath>
</defs>
</svg>
